<svg width="512" height="512" viewBox="0 0 512 512" fill="none" xmlns="http://www.w3.org/2000/svg">
<g clip-path="url(#clip0_498_1241)">
<path d="M431.453 7.35412L431.455 7.35185C440.558 -1.84916 455.44 -1.85203 464.646 7.35331L464.646 7.35375L504.546 47.3533L504.548 47.3556C513.749 56.4589 513.752 71.3409 504.546 80.5466L456.546 128.547C454.195 130.898 451.355 132.758 448.224 133.932L448.224 133.932L407.224 149.332L407.123 149.37L407.046 149.447L329.446 227.047L329.159 227.333L329.381 227.673C358.701 272.65 359.422 326.469 327.848 358.045C316.919 368.874 303.405 375.932 288.489 379.313L288.488 379.313C271.693 383.157 257.413 398.628 256.5 415.874L256.5 415.877C255.305 441.367 245.848 465.045 228.046 482.847C183.506 527.386 102.83 519.123 47.8532 464.147C-7.12323 409.17 -15.3868 328.494 29.1534 283.854C47.0554 266.052 70.6333 256.694 96.125 255.4L96.1261 255.399C113.369 254.487 128.943 240.209 132.688 223.41C136.069 208.493 143.027 194.98 153.953 184.054L153.954 184.053C185.43 152.478 239.348 153.198 284.327 182.519L284.667 182.741L284.953 182.454L362.453 104.854L362.53 104.777L362.568 104.676L377.968 63.676L377.968 63.6758C379.142 60.5451 381.002 57.7054 383.353 55.3541C383.353 55.354 383.353 55.3539 383.353 55.3537L431.453 7.35412ZM242.294 269.706C233.199 260.61 220.863 255.5 208 255.5C195.137 255.5 182.801 260.61 173.705 269.706C164.609 278.801 159.5 291.137 159.5 304C159.5 316.863 164.609 329.199 173.705 338.295C182.801 347.39 195.137 352.5 208 352.5C220.863 352.5 233.199 347.39 242.294 338.295C251.39 329.199 256.5 316.863 256.5 304C256.5 291.137 251.39 278.801 242.294 269.706Z" fill="url(#paint0_linear_498_1241)" stroke="black"/>
</g>
<defs>
<linearGradient id="paint0_linear_498_1241" x1="488" y1="2.45682e-05" x2="105" y2="496.5" gradientUnits="userSpaceOnUse">
<stop stop-color="#5B110A"/>
<stop offset="0.45" stop-color="#774E8B"/>
<stop offset="0.985" stop-color="#CBB86C"/>
</linearGradient>
<clipPath id="clip0_498_1241">
<rect width="512" height="512" fill="white"/>
</clipPath>
</defs>
</svg>
