<svg width="640" height="448" viewBox="0 0 640 448" fill="none" xmlns="http://www.w3.org/2000/svg">
<path d="M368.6 64L445.4 160H288V64H368.6ZM224 48V160H64C46.3 160 32 174.3 32 192V256C14.3 256 0 270.3 0 288C0 305.7 14.3 320 32 320H65.1C64.4 325.2 64 330.6 64 336C64 397.9 114.1 448 176 448C237.9 448 288 397.9 288 336C288 330.6 287.6 325.2 286.9 320H353.2C352.5 325.2 352.1 330.6 352.1 336C352.1 397.9 402.2 448 464.1 448C526 448 576.1 397.9 576.1 336C576.1 330.6 575.7 325.2 575 320H608.1C625.8 320 640.1 305.7 640.1 288C640.1 270.3 625.8 256 608.1 256V192C608.1 174.3 593.8 160 576.1 160H527.5L418.6 24C406.5 8.8 388.1 0 368.6 0H272C245.5 0 224 21.5 224 48ZM224 336C224 342.303 222.758 348.545 220.346 354.369C217.934 360.192 214.398 365.484 209.941 369.941C205.484 374.398 200.192 377.934 194.369 380.346C188.545 382.758 182.303 384 176 384C169.697 384 163.455 382.758 157.631 380.346C151.808 377.934 146.516 374.398 142.059 369.941C137.602 365.484 134.066 360.192 131.654 354.369C129.242 348.545 128 342.303 128 336C128 329.697 129.242 323.455 131.654 317.631C134.066 311.808 137.602 306.516 142.059 302.059C146.516 297.602 151.808 294.066 157.631 291.654C163.455 289.242 169.697 288 176 288C182.303 288 188.545 289.242 194.369 291.654C200.192 294.066 205.484 297.602 209.941 302.059C214.398 306.516 217.934 311.808 220.346 317.631C222.758 323.455 224 329.697 224 336ZM512 336C512 348.73 506.943 360.939 497.941 369.941C488.939 378.943 476.73 384 464 384C451.27 384 439.061 378.943 430.059 369.941C421.057 360.939 416 348.73 416 336C416 323.27 421.057 311.061 430.059 302.059C439.061 293.057 451.27 288 464 288C476.73 288 488.939 293.057 497.941 302.059C506.943 311.061 512 323.27 512 336Z" fill="url(#paint0_linear_498_1238)"/>
<defs>
<linearGradient id="paint0_linear_498_1238" x1="320.05" y1="0" x2="320.05" y2="448" gradientUnits="userSpaceOnUse">
<stop stop-color="#BB2247"/>
<stop offset="0.58" stop-color="#628BFA"/>
<stop offset="0.98" stop-color="#5D6973"/>
</linearGradient>
</defs>
</svg>
