<svg width="384" height="512" viewBox="0 0 384 512" fill="none" xmlns="http://www.w3.org/2000/svg">
<path d="M153.6 29.9L169.6 8.6C173.6 3.2 180 0 186.7 0C198.4 0 208 9.6 208 21.3V43.5C208 56.6 213.4 69.2 222.9 78.2L307.6 159C356.4 205.6 384 270.2 384 337.7C384 434 306 512 209.7 512H192C86 512 0 426 0 320V316.2C0 267.4 19.4 220.6 53.9 186.1L57.4 182.6C61.6 178.4 67.4 176 73.4 176C85.9 176 96 186.1 96 198.6V288C96 323.3 124.7 352 160 352C195.3 352 224 323.3 224 288V284.1C224 266.1 216.8 248.8 204.1 236.1L165.5 197.5C141.5 173.5 128 140.8 128 106.8C128 79.1 137 52 153.6 29.9Z" fill="url(#paint0_linear_498_1244)"/>
<defs>
<linearGradient id="paint0_linear_498_1244" x1="46.5" y1="18" x2="384" y2="566" gradientUnits="userSpaceOnUse">
<stop stop-color="#1C28A4"/>
<stop offset="0.535" stop-color="#7C8AB8"/>
<stop offset="0.98" stop-color="#749126"/>
</linearGradient>
</defs>
</svg>
